<svg xmlns="http://www.w3.org/2000/svg" viewBox="0 0 48 48" width="20" height="20">
  <path fill="#EA4335" d="M24 9.5c3.54 0 6.38 1.22 8.75 3.23l6.52-6.52C35.23 2.62 30.01 0 24 0 14.62 0 6.51 5.38 2.56 13.19l7.77 6.03C12.1 13.09 17.6 9.5 24 9.5z"/>
  <path fill="#4285F4" d="M46.1 24.5c0-1.64-.15-3.22-.43-4.75H24v9h12.45c-.54 2.88-2.18 5.31-4.65 6.94l7.18 5.58C43.45 37.02 46.1 31.3 46.1 24.5z"/>
  <path fill="#FBBC05" d="M10.33 28.22c-.48-1.45-.75-2.99-.75-4.57s.27-3.12.75-4.57l-7.77-6.03C.92 16.05 0 19.94 0 24s.92 7.95 2.56 10.95l7.77-6.73z"/>
  <path fill="#34A853" d="M24 48c6.01 0 11.05-1.99 14.73-5.43l-7.18-5.58c-2 1.34-4.56 2.13-7.55 2.13-6.4 0-11.9-3.59-13.67-8.72l-7.77 6.03C6.51 42.62 14.62 48 24 48z"/>
</svg>
